<?xml version="1.0" standalone="no"?>
<!DOCTYPE svg PUBLIC "-//W3C//DTD SVG 20010904//EN"
 "http://www.w3.org/TR/2001/REC-SVG-20010904/DTD/svg10.dtd">
<svg version="1.0" xmlns="http://www.w3.org/2000/svg"
 width="16.000000pt" height="16.000000pt" viewBox="0 0 16.000000 16.000000"
 preserveAspectRatio="xMidYMid meet">
<metadata>
Created by potrace 1.11, written by Peter Selinger 2001-2013
</metadata>
<g transform="translate(0.000000,16.000000) scale(0.001600,-0.001600)"
fill="#000000" stroke="none">
<path d="M0 5000 l0 -5000 5000 0 5000 0 0 5000 0 5000 -5000 0 -5000 0 0
-5000z m4884 2067 c37 -25 56 -74 56 -144 0 -71 -24 -119 -71 -145 -29 -16
-59 -18 -216 -18 l-183 0 0 -902 c0 -888 0 -904 -20 -936 -29 -47 -73 -62
-180 -62 -70 0 -99 4 -129 20 -75 38 -71 -19 -71 984 l0 896 -180 0 c-196 0
-219 5 -259 56 -17 22 -21 41 -21 110 0 78 2 85 30 118 18 20 45 38 66 43 20
4 286 6 593 3 518 -5 559 -6 585 -23z m-1859 8 c152 -32 299 -133 364 -249 58
-104 90 -238 91 -384 0 -74 -18 -115 -63 -142 -42 -26 -221 -29 -272 -4 -51
24 -61 48 -68 161 -14 218 -83 297 -257 297 -101 0 -163 -23 -203 -75 -50 -67
-62 -181 -26 -258 45 -100 112 -159 389 -346 291 -196 380 -280 447 -420 43
-92 57 -169 49 -278 -18 -264 -165 -432 -431 -493 -107 -25 -349 -25 -449 0
-168 41 -288 132 -356 270 -51 102 -70 192 -70 332 l0 110 36 35 35 34 113 3
c180 6 207 -18 218 -188 8 -130 20 -171 64 -220 45 -49 88 -63 194 -63 94 1
147 17 192 60 49 47 68 145 44 228 -29 98 -128 189 -385 353 -297 190 -437
336 -491 510 -25 80 -27 240 -5 327 54 212 204 351 429 400 84 19 324 18 411
0z m3032 0 c176 -34 317 -133 387 -273 72 -142 71 -135 71 -827 0 -561 -2
-626 -18 -685 -59 -220 -219 -371 -439 -415 -98 -19 -273 -19 -375 0 -230 43
-395 206 -451 445 -15 67 -17 139 -17 665 1 578 1 592 23 670 57 207 157 322
335 390 38 14 92 29 120 34 86 14 279 12 364 -4z m1518 5 c98 -14 214 -55 282
-99 156 -101 233 -277 233 -533 0 -285 -94 -465 -293 -563 -105 -51 -185 -66
-394 -72 l-183 -5 0 -425 c0 -468 0 -465 -63 -503 -26 -16 -50 -20 -135 -20
-112 0 -145 10 -181 56 -21 27 -21 27 -21 1059 l0 1032 22 28 c40 51 59 54
373 54 160 1 322 -4 360 -9z m-4941 -2637 c71 -26 147 -99 179 -171 34 -76 47
-143 47 -247 0 -75 -2 -84 -26 -106 -22 -20 -36 -24 -89 -24 -93 0 -110 19
-119 132 -12 155 -59 211 -168 201 -86 -9 -138 -86 -124 -186 12 -87 55 -140
231 -282 253 -206 302 -289 293 -494 -4 -83 -10 -112 -33 -163 -62 -140 -195
-208 -383 -197 -224 14 -342 159 -346 426 -1 78 1 89 23 112 22 23 32 26 93
26 97 0 113 -17 121 -132 10 -142 40 -188 130 -196 106 -9 160 41 161 148 0
96 -47 156 -244 312 -235 186 -309 324 -281 529 24 176 114 287 265 326 68 17
207 10 270 -14z m576 12 c17 -9 32 -28 39 -47 5 -18 46 -222 91 -453 83 -429
87 -451 95 -444 2 3 43 207 90 454 101 521 91 496 199 503 62 4 67 3 96 -26
l30 -30 0 -727 0 -727 -29 -29 c-26 -26 -36 -29 -91 -29 -55 0 -65 3 -91 29
l-29 29 -1 229 -1 228 -33 -230 c-33 -227 -33 -230 -64 -257 -54 -48 -156 -32
-179 29 -6 15 -22 111 -37 213 -38 274 -43 275 -44 13 l-1 -231 -31 -26 c-24
-20 -41 -26 -80 -26 -54 0 -103 20 -113 45 -3 9 -6 344 -6 744 0 767 -1 744
45 769 29 16 111 14 145 -3z m1302 4 c151 -32 237 -126 273 -297 18 -82 21
-828 4 -932 -20 -127 -94 -242 -187 -289 -22 -11 -69 -25 -106 -32 -180 -31
-335 40 -409 188 -48 95 -52 137 -52 598 0 478 3 505 68 614 75 127 238 186
409 150z m658 -4 c46 -24 52 -62 48 -322 -2 -127 0 -229 3 -227 4 2 80 123
170 270 120 195 172 270 193 281 43 22 150 14 177 -14 46 -45 37 -66 -174
-405 -108 -174 -197 -319 -197 -324 0 -4 31 -62 69 -128 302 -530 324 -572
324 -604 0 -54 -30 -76 -112 -80 -64 -4 -70 -2 -99 24 -17 16 -98 147 -180
291 -112 196 -152 259 -161 250 -7 -7 -11 -83 -11 -244 0 -306 -7 -323 -130
-323 -38 0 -55 6 -79 26 l-31 26 0 730 0 730 29 29 c25 24 37 29 81 29 28 0
64 -7 80 -15z m939 1 c15 -8 32 -26 39 -41 9 -19 12 -206 12 -731 0 -617 -2
-709 -15 -735 -19 -36 -50 -49 -116 -49 -42 0 -55 5 -80 29 l-29 29 0 724 c0
786 -2 756 54 778 33 14 104 11 135 -4z m390 -13 c30 -28 40 -51 268 -618 35
-88 67 -163 71 -167 4 -4 6 154 4 350 -2 239 0 369 8 394 14 47 51 68 120 68
44 0 56 -5 81 -29 l29 -29 0 -730 0 -730 -31 -26 c-24 -20 -41 -26 -80 -26
-79 0 -93 20 -202 290 -52 129 -121 300 -153 380 l-59 145 -5 -375 c-4 -283
-8 -381 -18 -398 -17 -29 -51 -42 -112 -42 -38 0 -55 6 -79 26 l-31 26 0 733
0 733 31 26 c44 38 117 37 158 -1z m1306 -4 c139 -52 215 -197 215 -411 0 -70
-3 -82 -25 -103 -21 -22 -33 -25 -93 -25 -98 0 -111 16 -122 148 -8 107 -16
130 -56 161 -41 32 -132 30 -173 -4 -54 -46 -56 -61 -56 -520 0 -409 1 -421
22 -467 25 -54 62 -78 123 -78 98 0 140 64 140 212 l0 96 -57 4 c-48 4 -61 10
-85 37 -24 26 -28 40 -28 87 0 48 4 59 29 85 l29 29 152 0 c147 0 152 -1 175
-25 25 -24 25 -26 25 -213 0 -103 -5 -215 -11 -247 -22 -117 -94 -221 -183
-265 -91 -44 -230 -49 -339 -14 -63 21 -148 99 -180 167 -46 99 -49 130 -45
627 l3 465 27 64 c51 119 130 186 248 211 69 14 198 4 265 -21z"/>
<path d="M5795 6751 c-75 -19 -112 -51 -147 -126 l-23 -50 0 -600 0 -600 26
-56 c45 -95 128 -137 250 -126 118 10 185 80 209 217 8 45 10 235 8 605 -4
606 -4 608 -75 678 -56 56 -157 80 -248 58z"/>
<path d="M7220 6450 l0 -313 138 5 c120 4 144 7 193 30 32 15 67 40 82 60 40
52 60 146 55 253 -6 101 -21 145 -67 197 -47 54 -102 70 -263 75 l-138 5 0
-312z"/>
<path d="M4342 4210 c-66 -41 -67 -47 -67 -520 0 -415 1 -426 22 -472 28 -60
67 -82 137 -75 58 5 98 41 115 104 15 53 15 820 0 879 -16 64 -65 104 -127
104 -29 0 -59 -8 -80 -20z"/>
</g>
</svg>
